<svg xmlns="http://www.w3.org/2000/svg" viewBox="0 0 320 80" role="img" aria-labelledby="hiboairTitle hiboairDesc">
  <title id="hiboairTitle">HiBiAir logo</title>
  <desc id="hiboairDesc">A navy blue framed square with diagonal stripes and a flowing air motif beside the HiBiAir wordmark.</desc>
  <g fill="none" fill-rule="evenodd">
    <rect x="8" y="8" width="64" height="64" rx="14" fill="#0B3E6A" />
    <rect x="20" y="20" width="40" height="40" rx="10" fill="#FFFFFF" />
    <path d="M58 8h6c8 0 14 6 14 14v36c0 8-6 14-14 14h-6z" fill="#FFFFFF" />
    <path d="M24 58L40 26h8L32 58z" fill="#0B3E6A" />
    <path d="M34 58L50 26h8L42 58z" fill="#0B3E6A" />
    <path d="M44 58L58 28h6L50 58z" fill="#0B3E6A" />
    <path d="M58 34c6-6 18-6 24 0" stroke="#0B3E6A" stroke-width="6" stroke-linecap="round" />
    <path d="M58 46c6-6 18-6 24 0" stroke="#0B3E6A" stroke-width="6" stroke-linecap="round" />
    <path d="M58 58c6-6 18-6 24 0" stroke="#0B3E6A" stroke-width="6" stroke-linecap="round" />
    <text x="94" y="52" fill="#0B3E6A" font-family="'Montserrat','Helvetica Neue',Arial,sans-serif" font-size="38" font-weight="600">HiBiAir</text>
  </g>
</svg>
